<?xml version="1.0" encoding="utf-8"?>
<!-- Generator: Adobe Illustrator 15.0.2, SVG Export Plug-In . SVG Version: 6.00 Build 0)  -->
<!DOCTYPE svg PUBLIC "-//W3C//DTD SVG 1.1//EN" "http://www.w3.org/Graphics/SVG/1.1/DTD/svg11.dtd">
<svg version="1.1" xmlns="http://www.w3.org/2000/svg" xmlns:xlink="http://www.w3.org/1999/xlink" x="0px" y="0px"
	 width="94.134px" height="76.494px" viewBox="0 0 94.134 76.494" enable-background="new 0 0 94.134 76.494" xml:space="preserve">
<g id="background" display="none">
	
		<rect x="-110.864" y="-141.192" display="inline" fill="#87CEEB" stroke="#000000" stroke-miterlimit="10" width="736" height="519.667"/>
</g>
<g id="WellnessLogoInitial" display="none">
	
		<image overflow="visible" width="108" height="86" xlink:href="../img_wellness/wellnessLogo.png"  transform="matrix(3.0463 0 0 2.9767 395.1362 47.8081)">
	</image>
	<path fill="none" stroke="#000000" stroke-width="3" stroke-miterlimit="10" d="M37.985,39.316
		c7.723,0.003,9.917,0.065,15.334-3.699c4.994-3.469,8.064-8.511,13.743-11.428c10.163-5.221,22.11-5.168,33.232-6.466
		c0.977-9.319,0.194-52.62,17.206-46.467c16.031,5.799,12.307,43.008,12.812,55.566c9.378,0.45,24.794-11.204,33.858-15.003
		c13.444-5.635,23.819-16.009,36.721-22.354c10.355,19.431-1.004,47.614-8.211,67.077c-3.949,10.664-9.363,14.868-15.299,22.945
		c-9.194,12.512-0.678,30.697,6.261,42.393c7.686,12.955,19.81,23.37,25.928,37.133c-7.453,3.177-15.542-2.205-22.197-5.171
		c0.9,5.618,1.345,12.124-0.079,17.431c-11.781-4.643-16.899-17.555-27.503-22.724c-12.104-5.899-22.826-13.85-32.113-23.582
		c-9.213-9.656-16.075-23.089-27.999-29.732c-9.447-5.264-17.603-6.852-23.538-17.012c-2.594-4.442-3.796-14.809-10.61-10.584
		c4.718-2.925-0.316-19.233-3.406-22.029c-7.179-6.495-19.364-2.007-27.989-2.444c-0.182-2.266-0.758-5.66-0.151-7.849"/>
	<g display="inline">
		<path fill="#87CEEB" d="M418.16-82.288c-3.612,1.584-6.247,7.761-9.5,12c-8.206,10.695-18.188,20.189-27.002,29.001
			c-12.599,12.6-26.955,23.789-40.002,35.002c-14.077,12.1-30.121,20.43-45.502,29.501c-12.07,7.119-23.238,14.844-36.002,20.001
			c-9.295,3.755-20.553,6.355-27.502,11.501c-9.607,7.115-15.812,18.951-26,25.001c-1.27,0.754-3.125,1.696-4.501,2
			c-18.098,4.006-14.347-14.808-8.5-23.001c0.103-11.115,2.638-21.858,1-32.001c-0.744-4.605-4.272-6.66-4.5-11.501
			c-0.515-10.934,1.052-27.981-1.5-37.502c-1.386-3.263-6.812-4.052-8-8c-0.909-3.022,0.624-6.809,0-10
			c-0.504-2.583-2.631-5.064-3.5-7c-1.112-2.477-1.303-6.02-4.5-6c-0.528,13.032-3.562,23.606-6.5,33.502
			c-1.272,4.286-2.707,7.682-3.5,10.5c-2.727,9.691-3.27,21.564-5,32.501c-1.345,8.502-1.063,19.063-1,30.501
			c-10.584,6.458-23.194-3.794-35.501-5c-11.58-1.135-19.689,1.858-30.002,4c-6.846,4.314-14.249,6.163-20.501,11.5
			C57.69,75.278,51.205,89.219,33.14,93.722c-14.307,3.566-32.815,4.564-43.002,11.5c11.51,3.569,24.419,0.333,37.002,1.5
			c7.345,0.681,14.623,0.153,21.501,1c6.401,0.788,13.926,4.686,20.001,8.5c13.175,8.272,26.88,19.234,35.502,30.501
			c1.603,2.095,4.054,5.694,4.5,8c0.568,2.939-0.34,6.105,0,9.002c0.846,7.184,3.729,16.369,6,22
			c4.709,11.674,9.998,17.627,19.001,25.502c6.113,5.346,11.235,12.125,17.001,17c9.889,8.363,22.944,12.195,32.001,19.502
			c4.646,3.748,11.279,10.025,14.501,15c2.959,4.57,3.427,9.691,10.501,10.5c1.132-3.09-4.475-3.434-3.001-8.5
			c1.593-1.189,4.759-1.553,7.001-1c5.363,1.324,11.957,12.1,16.5,17.502c5.042,5.992,11.855,13.689,17.002,17.5
			c6.926,5.129,15.822,7.07,23,11.5c9.757,6.023,21.491,14.783,28.002,23.502c7.728,10.35,11.159,22.807,21.001,31.502
			c1.551-4.969,1.289-11.145,0.5-15.502c-2.074-11.445-10.65-20.664-9.5-31c11.068,3.023,20.938,8.371,31.501,12.5
			c10.388,4.061,21.129,8.777,33.002,10c-5.998-5.586-13.045-8.648-19.001-14c-11.829-10.629-20.383-22.379-31.002-35.002
			c-4.963-5.9-12.285-12.037-13.5-19.502c-0.321-1.969,0.248-4.879,0-7c-0.85-7.266-4.079-16.029-7.001-23.5
			c-6.07-15.527-12.058-27.812-18.501-43.504c-3.745-9.119-10.294-17.588-8.5-28c14.498-3.836,18.19-18.479,28.501-26.502
			c-0.734-9.568,8.355-9.312,12.501-14c0.526-9.762,12.267-9.739,13.501-18c0.291-1.949-1.852-3.763-1.5-6
			c1.129-7.202,15.62-8.628,18.001-16.501c0.667-2.208-0.515-4.493,0-6c1.917-5.622,11.94-9.958,16-15.501
			c3.525-4.812,6.088-11.424,10.001-17.501c7.204-11.187,15.219-21.979,23.001-32.501c4.014-5.427,9.082-10.923,12.001-16.001
			c3.458-6.017,0.864-11.611,2.5-18.501c0.657-2.768,2.559-4.851,3-7.5c0.955-5.735,0.36-11.623,6-17
			c1.258-7.561-3.262-12.394-2-19.001c1.159-6.067,7.816-14.304,2.5-22.501C418.827-82.288,418.494-82.288,418.16-82.288z"/>
		<g>
			<path fill="#F7F7F7" d="M418.16-83.538c-4.887,2.748-7.286,9.158-10.63,13.452c-4.869,6.254-10.379,12.001-15.936,17.641
				c-10.656,10.818-21.671,21.119-33.287,30.902c-11.432,9.628-22.606,19.477-35.205,27.576
				c-12.329,7.925-25.292,14.855-37.789,22.514c-12.574,7.707-25.149,13.468-39.025,18.374c-5.787,2.046-11.228,4.472-15.974,8.42
				c-5.056,4.206-9.081,9.598-13.494,14.437c-5.429,5.953-17.3,16.386-25.594,9.04c-2.705-2.396-2.453-6.351-1.741-9.51
				c0.392-1.739,1.036-3.415,1.74-5.047c0.471-1.092,2.387-3.254,2.426-4.335c0.373-10.263,2.393-20.755,1.397-31.054
				c-0.309-3.194-0.9-5.715-2.508-8.5c-3.129-5.419-2.514-10.819-2.43-17.061c0.052-3.859,0.109-7.723,0.041-11.582
				c-0.091-5.124-0.281-10.265-1.503-15.264c-0.518-2.118-3.822-3.544-5.421-4.675c-3.01-2.129-2.545-4.587-2.462-8.02
				c0.043-1.79,0.072-3.524-0.117-5.305c-0.304-2.866-2.847-5.34-3.881-7.97c-0.934-2.374-1.225-4.622-4.119-5.031
				c-0.001,0.015-0.002,0.03-0.003,0.044c-1.024,20.496-10.117,38.761-12.76,58.867c-1.239,9.423-2.783,18.92-3.18,28.421
				c-0.3,7.174-0.114,14.378-0.068,21.554c0.003-0.627,0.007-1.254,0.011-1.881c-6.814,3.708-13.859,1.551-20.737-0.859
				c-7.994-2.801-15.159-4.756-23.733-4.237c-16.406,0.991-33.924,7.987-45.749,19.483c-10.032,9.752-17.78,20.883-31.767,25.207
				c-14.559,4.5-31.336,3.41-44.522,11.909c-0.122,0.079-0.027,2.492,0,2.5c11.503,3.233,23.46,0.806,35.203,1.362
				c11.62,0.55,23.402-0.252,34.216,4.618c10.602,4.774,20.383,12.275,29.225,19.726c4.398,3.706,8.502,7.746,12.308,12.055
				c3.385,3.833,7.196,8.286,7.74,13.529c-0.002-0.777-0.004-1.553-0.006-2.33c-0.105,5.021-0.388,9.068,0.552,14.05
				c1.666,8.838,4.79,17.723,9.129,25.598c3.764,6.832,9.347,12.29,15.142,17.398c7.667,6.759,13.634,15.061,22.176,20.841
				c7.375,4.991,15.766,8.26,23.256,13.068c7.104,4.562,14.277,11.351,18.67,18.579c1.498,2.464,2.41,5.099,4.436,7.219
				c1.013,1.06,5.601,3.686,5.625,1.209c0.007-0.694,0.082-1.443-0.009-2.134c-0.346-2.656-3.32-3.424-3.374-6.438
				c-0.002,0.777-0.004,1.554-0.006,2.33c0.877-4.49,8.336-2.037,10.75-0.218c4.331,3.264,7.462,8.369,10.687,12.645
				c6.738,8.932,14.783,18.465,24.801,23.74c5.234,2.757,10.91,4.553,16.128,7.359c5.883,3.163,11.383,7.383,16.583,11.543
				c10.176,8.141,16.293,17.881,22.492,29.133c2.808,5.099,5.98,9.884,10.096,14.024c2.067,2.081,1.569-0.215,1.921-1.995
				c0.163-0.83,0.325-2.454,0.353-3.291c0.032-0.95,0.063-1.889,0.063-2.838c0-9.596-3.381-17.408-7.203-26.056
				c-0.978-2.211-1.774-4.47-2.404-6.803c-1.438-5.329,3.069-3.369,6.316-2.228c6.716,2.361,13.159,5.474,19.693,8.281
				c12.124,5.21,24.77,10.478,37.961,12.033c-0.155-0.019,0.206-2.316,0-2.5c-5.902-5.265-13.017-8.843-19.001-14
				c-6.277-5.409-11.771-11.782-17.094-18.106c-5.33-6.334-10.342-12.95-15.863-19.121c-4.809-5.374-11.05-10.904-11.645-18.557
				c0.002,0.776,0.004,1.553,0.007,2.329c0.058-2.555,0.446-5.458,0.093-8.049c-1.038-7.61-3.673-14.851-6.413-21.989
				c-6.191-16.131-13.188-32.154-20.352-47.876c-3.228-7.084-8.318-14.473-7.237-22.639c0.001-0.007,7.584-3.496,8.369-4.051
				c2.392-1.694,4.388-3.928,6.267-6.153c3.811-4.514,6.908-9.548,11.042-13.799c2.748-2.826,2.892-2.628,2.788-6.318
				c-0.001,0.818-0.002,1.637-0.003,2.456c0.439-5.512,4.32-7.444,8.733-9.817c2.596-1.396,3.561-2.338,4.183-5.156
				c0.598-2.702,2.809-4.707,4.884-6.333c3.044-2.385,8.08-4.878,8.243-9.376c0.111-3.048-1.388-5.456-1.5-8.412
				c-0.001,0.819-0.002,1.637-0.003,2.456c1.538-6.503,10.772-8.496,15.323-12.453c3.486-3.032,3.055-7.198,2.555-11.285
				c0,0.833,0,1.667,0,2.5c0.717-7.348,11.876-11.447,16.123-16.764c3.042-3.808,4.992-8.612,7.283-12.879
				c2.941-5.477,6.613-10.583,10.153-15.681c6.669-9.605,13.569-19.114,20.9-28.226c3.338-4.149,7.043-8.384,8.285-13.677
				c0.455-1.939,0.332-4.067,0.326-6.045c-0.012-4.231,0.214-7.978,2.136-11.79c2.052-4.071,1.795-8.633,2.829-13
				c0.814-3.44,4.71-6.255,4.781-9.458c0.028-1.246,0.111-2.542,0.031-3.791c-0.235-3.658-1.403-7.061-2.158-10.626
				c-1.009-4.769,2.806-10.251,4.001-14.738C421.482-73.281,422.024-83.538,418.16-83.538c-0.019,0-0.019,2.5,0,2.5
				c2.394,0,2.797,4.196,3.016,6.121c-0.004-0.527-0.009-1.055-0.013-1.583c-0.025,6.753-4.717,12.332-4.735,19.117
				c-0.004,1.413,0.087,2.778,0.297,4.18c0.325,2.163,1.081,4.284,1.599,6.405c0.395,1.557,0.507,3.144,0.337,4.762
				c-0.074,0.631-2.549,3.081-3.004,3.796c-2.199,3.454-2.318,7.944-2.8,11.878c-0.528,4.318-3.211,7.76-3.709,12.171
				c-0.178,1.569-0.11,3.183-0.106,4.759c0.017,6.049-1.067,9.499-4.423,14.276c-6.182,8.802-13.189,17.087-19.511,25.809
				c-6.896,9.516-13.417,19.116-18.878,29.531c-2.038,3.887-4.204,7.405-7.508,10.328c-3.312,2.93-7.114,5.217-10.24,8.373
				c-3.119,3.149-2.488,6.48-2.115,10.427c0-0.833,0-1.667,0-2.5c-1.013,8.027-10.949,9.714-16.133,14.433
				c-4.167,3.792-0.878,7.774-0.58,12.182c0.001-0.819,0.002-1.637,0.003-2.456c-0.972,4.585-4.716,6.733-8.24,9.332
				c-1.952,1.439-3.485,3.114-4.53,5.308c-0.499,1.046-0.609,2.229-0.73,3.361c-0.084,0.781-2.372,1.966-2.963,2.338
				c-3.683,2.319-7.72,3.473-9.255,7.97c-0.624,1.825-0.34,4.244-0.286,6.148c0.001-0.819,0.002-1.637,0.003-2.456
				c-6.917,5.635-10.992,13.75-17.259,20.001c-1.502,1.499-3.212,2.741-4.997,3.875c-2.255,1.432-6.109,1.596-6.46,4.254
				c-0.168,1.268-0.12,2.646-0.093,3.928c0.212,10.255,6.441,19.288,10.288,28.508c5.086,12.19,10.665,24.167,15.623,36.412
				c3.94,9.731,8.398,19.98,8.292,30.614c-0.076,7.604,4.652,13.065,9.576,18.43c8.681,9.457,16.273,19.846,24.89,29.366
				c4.327,4.781,8.929,9.429,14.103,13.294c4.975,3.717,10.386,6.674,15.043,10.828c0-0.833,0-1.667,0-2.5
				c-22.974-2.71-42.595-16.245-64.503-22.5c-0.001,0.015-0.002,0.029-0.003,0.045c-0.364,5.199,0.425,9.902,2.363,14.809
				c1.877,4.751,4.301,9.238,5.97,14.08c0.824,2.393,1.259,4.872,1.569,7.375c0.389,3.125,0.093,5.729-0.487,8.67
				c-0.566,2.874-1.544,0.484-2.745-0.726c-7.424-7.472-11.167-17.903-16.819-26.625c-6.342-9.785-16.205-17.125-25.767-23.521
				c-8.858-5.924-19.635-8.365-28.067-14.868c-8.084-6.235-14.742-14.885-20.832-23c-2.694-3.59-5.456-7.246-9.066-9.968
				c-2.058-1.551-9.71-2.978-9.853,0.941c-0.04,1.094-0.004,2.193,0.015,3.287c0.045,2.521,3.061,3.413,3.369,5.776
				c0-0.833,0-1.667,0-2.5c-0.41,1.96-4.613-0.757-5.616-1.575c-1.588-1.296-2.49-3.459-3.387-5.239
				c-2.577-5.118-6.553-9.228-10.657-13.157c-9.48-9.074-21.438-13.486-32.318-20.47c-5.662-3.634-10.184-8.554-14.734-13.44
				c-4.673-5.019-9.96-9.35-14.719-14.272c-8.381-8.669-12.822-19.934-15.901-31.404c-1.351-5.032-1.64-9.696-1.625-14.858
				c0.01-3.572-1.217-6.271-3.183-9.271c-7.663-11.695-19.786-20.918-31.145-28.753c-5.73-3.953-11.689-7.576-18.135-10.239
				c-6.969-2.879-14.532-2.592-21.929-2.734c-7.29-0.14-14.431-0.728-21.737-0.411c-7.62,0.331-15.159,0.621-22.575-1.463
				c0,0.833,0,1.667,0,2.5c12.478-8.042,28.931-8.106,43.002-11.5c14.665-3.537,23.194-15.517,33.288-25.616
				c5.949-5.952,12.808-9.227,20.254-12.894c1.532-0.755,3-1.612,4.461-2.493c1.59-0.958,4.774-1.066,6.611-1.5
				c4.227-0.998,8.442-1.918,12.758-2.444c8.447-1.029,16.048,0.742,23.934,3.561c7.28,2.603,14.902,5.354,22.201,1.382
				c0.157-0.085,0.012-1.685,0.011-1.881c-0.151-23.454,1.497-47.469,8.937-69.839c3.028-9.104,5.326-18.571,6.497-28.094
				c0.22-1.792,0.344-3.591,0.468-5.391c0.285-4.149,3.141,0.31,3.52,1.208c1.549,3.67,4.296,7.418,4.718,11.393
				c-0.001-0.818-0.002-1.637-0.003-2.456c-0.064,2.663-0.47,5.279-0.443,7.944c0.048,4.814,2.858,6.283,6.43,8.88
				c4.911,3.569,3.393,16.765,3.354,21.473c-0.038,4.545-0.126,9.088-0.102,13.634c0.022,4.152,0.344,7.359,2.508,11.031
				c4.436,7.525,2.354,17.159,1.615,25.427c-0.223,2.49-0.423,4.993-0.475,7.493c-0.046,2.221-1.549,4.031-2.455,5.969
				c-1.363,2.918-2.318,6.278-2.386,9.514c-0.096,4.593,0.038,9.528,4.914,11.628c10.611,4.571,21.242-8.446,27.119-15.187
				c3.962-4.544,7.939-9.063,12.909-12.539c5.51-3.854,12.452-5.76,18.738-7.917c14.02-4.809,26.361-12.305,38.951-19.983
				c11.965-7.297,24.363-13.851,36.036-21.627c11.948-7.959,22.669-17.812,33.614-27.068c11.111-9.396,21.53-19.449,31.738-29.811
				c5.145-5.223,10.087-10.633,14.67-16.357c3.426-4.279,5.703-10.681,10.63-13.452C418.53-81.246,417.818-83.346,418.16-83.538z"/>
		</g>
	</g>
	<g display="inline">
		<path fill="#FFFFFF" d="M577.16-64.192c-3.612,1.584-6.247,7.761-9.5,12c-8.206,10.695-18.188,20.189-27.002,29.001
			c-12.599,12.6-26.955,23.789-40.002,35.002c-14.077,12.1-30.121,20.43-45.502,29.501c-12.07,7.119-23.238,14.844-36.002,20.001
			c-9.295,3.755-20.553,6.355-27.502,11.501c-9.607,7.115-15.812,18.951-26,25.001c-1.27,0.754-3.125,1.696-4.501,2
			c-18.099,4.006-14.347-14.808-8.501-23.001c0.104-11.115,2.639-21.858,1-32.001c-0.743-4.605-4.271-6.66-4.5-11.501
			c-0.514-10.934,1.053-27.981-1.5-37.502c-1.385-3.263-6.812-4.052-8-8c-0.909-3.022,0.623-6.809,0-10
			c-0.504-2.583-2.631-5.064-3.5-7c-1.111-2.477-1.303-6.02-4.5-6c-0.529,13.032-3.562,23.606-6.501,33.502
			c-1.272,4.286-2.707,7.682-3.5,10.5c-2.727,9.691-3.271,21.564-5.001,32.501c-1.344,8.502-1.062,19.063-1,30.501
			c-10.584,6.458-23.193-3.794-35.501-5c-11.58-1.135-19.689,1.858-30.002,4c-6.847,4.314-14.249,6.163-20.501,11.5
			c-12.952,11.059-19.438,24.999-37.502,29.502c-14.307,3.566-32.815,4.564-43.002,11.5c11.51,3.569,24.419,0.333,37.002,1.5
			c7.345,0.681,14.623,0.153,21.501,1c6.401,0.788,13.926,4.686,20.001,8.5c13.176,8.273,26.88,19.234,35.502,30.501
			c1.603,2.094,4.054,5.693,4.5,8c0.568,2.939-0.34,6.105,0,9.002c0.846,7.184,3.729,16.369,6,22
			c4.709,11.674,9.998,17.627,19.002,25.502c6.112,5.346,11.234,12.125,17,17c9.889,8.363,22.945,12.195,32.002,19.502
			c4.646,3.748,11.279,10.025,14.501,15c2.959,4.57,3.427,9.691,10.501,10.5c1.132-3.09-4.475-3.434-3.001-8.5
			c1.593-1.189,4.759-1.553,7.001-1c5.363,1.324,11.957,12.1,16.5,17.502c5.042,5.992,11.855,13.689,17.002,17.5
			c6.926,5.129,15.822,7.07,23,11.5c9.757,6.023,21.491,14.783,28.002,23.502c7.728,10.35,11.159,22.807,21.001,31.502
			c1.551-4.969,1.289-11.145,0.5-15.502c-2.074-11.445-10.65-20.664-9.5-31c11.068,3.023,20.938,8.371,31.501,12.5
			c10.388,4.061,21.129,8.777,33.002,10c-5.998-5.586-13.045-8.648-19.001-14c-11.829-10.629-20.383-22.379-31.002-35.002
			c-4.963-5.9-12.285-12.037-13.5-19.502c-0.321-1.969,0.248-4.879,0-7c-0.85-7.266-4.079-16.029-7.001-23.5
			c-6.07-15.527-12.058-27.812-18.501-43.504c-3.745-9.119-10.294-17.588-8.5-28c14.498-3.836,18.19-18.479,28.501-26.502
			c-0.734-9.568,8.355-9.312,12.501-14.001c0.526-9.762,12.267-9.739,13.501-18c0.291-1.949-1.852-3.763-1.5-6
			c1.129-7.202,15.62-8.628,18.001-16.501c0.667-2.208-0.515-4.493,0-6c1.917-5.622,11.94-9.958,16-15.501
			c3.525-4.812,6.088-11.424,10.001-17.501c7.204-11.187,15.219-21.979,23.001-32.501c4.014-5.427,9.082-10.923,12.001-16.001
			c3.458-6.017,0.864-11.611,2.5-18.501c0.657-2.768,2.559-4.851,3-7.5c0.955-5.735,0.36-11.623,6-17
			c1.258-7.561-3.262-12.394-2-19.001c1.159-6.067,7.816-14.304,2.5-22.501C577.827-64.192,577.494-64.192,577.16-64.192z"/>
		<g>
			<path fill="#F7F7F7" d="M577.16-65.442c-4.887,2.748-7.286,9.158-10.63,13.452c-4.869,6.254-10.379,12.001-15.936,17.641
				c-10.656,10.818-21.671,21.119-33.287,30.902c-11.432,9.628-22.606,19.477-35.205,27.576
				c-12.329,7.925-25.292,14.855-37.789,22.514c-12.573,7.707-25.149,13.468-39.024,18.374c-5.787,2.046-11.228,4.472-15.974,8.42
				c-5.057,4.206-9.081,9.598-13.495,14.437c-5.429,5.953-17.3,16.386-25.594,9.04c-2.704-2.396-2.452-6.351-1.74-9.51
				c0.392-1.739,1.035-3.415,1.739-5.047c0.472-1.092,2.387-3.254,2.426-4.335c0.373-10.263,2.394-20.755,1.397-31.054
				c-0.309-3.194-0.899-5.715-2.508-8.5c-3.129-5.42-2.514-10.819-2.429-17.061c0.052-3.859,0.108-7.723,0.04-11.582
				c-0.091-5.124-0.281-10.265-1.504-15.264c-0.518-2.118-3.821-3.544-5.421-4.675c-3.01-2.129-2.545-4.587-2.462-8.02
				c0.043-1.79,0.071-3.524-0.117-5.305c-0.304-2.866-2.847-5.339-3.881-7.97c-0.934-2.374-1.226-4.622-4.119-5.031
				c-0.001,0.015-0.002,0.03-0.003,0.044c-1.026,20.496-10.118,38.761-12.762,58.867c-1.239,9.423-2.782,18.92-3.18,28.421
				c-0.3,7.174-0.114,14.378-0.068,21.554c0.004-0.627,0.007-1.254,0.011-1.881c-6.813,3.708-13.859,1.551-20.736-0.859
				c-7.994-2.801-15.159-4.756-23.733-4.237c-16.406,0.991-33.924,7.987-45.749,19.483c-10.032,9.752-17.78,20.883-31.767,25.207
				c-14.559,4.5-31.336,3.41-44.522,11.909c-0.122,0.079-0.027,2.492,0,2.5c11.503,3.233,23.46,0.806,35.203,1.362
				c11.62,0.55,23.402-0.252,34.216,4.618c10.602,4.774,20.383,12.276,29.225,19.726c4.398,3.706,8.502,7.746,12.308,12.055
				c3.385,3.833,7.196,8.285,7.74,13.528c-0.002-0.776-0.004-1.553-0.006-2.329c-0.105,5.021-0.388,9.067,0.552,14.05
				c1.666,8.837,4.789,17.723,9.128,25.598c3.765,6.832,9.347,12.29,15.143,17.398c7.667,6.758,13.633,15.061,22.175,20.841
				c7.375,4.991,15.767,8.26,23.258,13.068c7.104,4.562,14.276,11.351,18.67,18.579c1.497,2.464,2.409,5.099,4.436,7.219
				c1.013,1.06,5.601,3.686,5.625,1.209c0.007-0.694,0.081-1.443-0.009-2.134c-0.346-2.656-3.319-3.424-3.374-6.438
				c-0.002,0.777-0.004,1.554-0.006,2.33c0.876-4.49,8.336-2.037,10.75-0.218c4.33,3.264,7.462,8.369,10.688,12.645
				c6.737,8.932,14.783,18.465,24.8,23.74c5.234,2.757,10.91,4.553,16.129,7.359c5.883,3.163,11.383,7.383,16.584,11.543
				c10.176,8.141,16.293,17.881,22.491,29.133c2.808,5.099,5.98,9.884,10.096,14.024c2.067,2.081,1.569-0.215,1.921-1.995
				c0.163-0.83,0.325-2.454,0.353-3.291c0.032-0.95,0.063-1.889,0.063-2.838c0-9.596-3.381-17.408-7.203-26.056
				c-0.978-2.211-1.774-4.47-2.404-6.803c-1.438-5.329,3.069-3.369,6.316-2.228c6.716,2.361,13.159,5.474,19.693,8.281
				c12.124,5.21,24.77,10.478,37.961,12.033c-0.156-0.019,0.206-2.316,0-2.5c-5.902-5.265-13.017-8.843-19.001-14
				c-6.277-5.409-11.771-11.782-17.094-18.106c-5.33-6.334-10.342-12.95-15.863-19.121c-4.809-5.374-11.05-10.904-11.645-18.557
				c0.002,0.776,0.004,1.553,0.007,2.329c0.058-2.555,0.446-5.458,0.093-8.049c-1.038-7.61-3.673-14.851-6.413-21.989
				c-6.191-16.131-13.188-32.154-20.352-47.876c-3.228-7.084-8.318-14.473-7.237-22.639c0.001-0.007,7.585-3.496,8.369-4.051
				c2.392-1.694,4.388-3.928,6.267-6.153c3.811-4.515,6.908-9.548,11.042-13.798c2.748-2.826,2.892-2.628,2.788-6.318
				c-0.001,0.818-0.002,1.637-0.003,2.455c0.439-5.512,4.32-7.445,8.733-9.817c2.596-1.396,3.561-2.339,4.184-5.157
				c0.597-2.702,2.808-4.707,4.883-6.333c3.044-2.385,8.08-4.878,8.243-9.376c0.111-3.048-1.388-5.456-1.5-8.412
				c-0.001,0.819-0.002,1.637-0.003,2.456c1.538-6.503,10.772-8.496,15.323-12.453c3.486-3.032,3.055-7.198,2.555-11.285
				c0,0.833,0,1.667,0,2.5c0.717-7.348,11.876-11.447,16.123-16.764c3.042-3.808,4.992-8.612,7.283-12.879
				c2.941-5.477,6.613-10.583,10.153-15.681c6.669-9.605,13.569-19.114,20.9-28.226c3.338-4.149,7.043-8.384,8.285-13.677
				c0.455-1.939,0.332-4.067,0.326-6.045c-0.012-4.231,0.214-7.978,2.136-11.79c2.052-4.071,1.795-8.633,2.829-13
				c0.814-3.44,4.71-6.255,4.781-9.458c0.028-1.246,0.111-2.542,0.031-3.791c-0.235-3.658-1.403-7.061-2.158-10.626
				c-1.009-4.769,2.806-10.251,4.001-14.738C580.482-55.186,581.024-65.442,577.16-65.442c-0.019,0-0.019,2.5,0,2.5
				c2.394,0,2.797,4.196,3.016,6.121c-0.004-0.527-0.009-1.055-0.013-1.583c-0.025,6.753-4.717,12.332-4.735,19.117
				c-0.004,1.413,0.087,2.778,0.297,4.18c0.325,2.163,1.081,4.284,1.599,6.405c0.395,1.557,0.507,3.144,0.337,4.762
				c-0.074,0.631-2.549,3.081-3.004,3.796c-2.199,3.454-2.318,7.944-2.8,11.878c-0.528,4.318-3.211,7.76-3.709,12.171
				c-0.178,1.569-0.11,3.183-0.106,4.759c0.017,6.049-1.067,9.499-4.423,14.276c-6.182,8.802-13.189,17.087-19.511,25.809
				c-6.896,9.516-13.417,19.116-18.878,29.531c-2.038,3.887-4.204,7.405-7.508,10.328c-3.312,2.93-7.114,5.217-10.24,8.373
				c-3.119,3.149-2.488,6.48-2.115,10.427c0-0.833,0-1.667,0-2.5c-1.013,8.027-10.949,9.714-16.133,14.433
				c-4.167,3.792-0.878,7.774-0.58,12.182c0.001-0.819,0.002-1.637,0.003-2.456c-0.972,4.585-4.716,6.733-8.24,9.332
				c-1.952,1.439-3.485,3.114-4.53,5.308c-0.499,1.046-0.609,2.229-0.73,3.361c-0.084,0.781-2.372,1.966-2.963,2.338
				c-3.683,2.319-7.72,3.473-9.255,7.971c-0.623,1.825-0.34,4.243-0.286,6.147c0.001-0.818,0.002-1.637,0.003-2.455
				c-6.917,5.635-10.992,13.75-17.259,20.001c-1.502,1.499-3.212,2.741-4.997,3.875c-2.256,1.432-6.108,1.596-6.461,4.254
				c-0.168,1.268-0.119,2.646-0.093,3.928c0.213,10.255,6.44,19.288,10.288,28.508c5.086,12.19,10.664,24.167,15.622,36.412
				c3.94,9.731,8.398,19.98,8.292,30.614c-0.076,7.604,4.652,13.065,9.576,18.43c8.681,9.457,16.273,19.846,24.89,29.366
				c4.327,4.781,8.929,9.429,14.103,13.294c4.975,3.717,10.386,6.674,15.043,10.828c0-0.833,0-1.667,0-2.5
				c-22.974-2.71-42.595-16.245-64.503-22.5c-0.001,0.015-0.002,0.029-0.003,0.045c-0.364,5.199,0.425,9.902,2.363,14.809
				c1.877,4.751,4.301,9.238,5.97,14.08c0.824,2.393,1.259,4.872,1.569,7.375c0.389,3.125,0.093,5.729-0.487,8.67
				c-0.566,2.874-1.544,0.484-2.745-0.726c-7.424-7.472-11.167-17.903-16.819-26.625c-6.342-9.785-16.205-17.125-25.767-23.521
				c-8.859-5.924-19.636-8.365-28.067-14.868c-8.085-6.235-14.742-14.885-20.833-23c-2.694-3.59-5.456-7.246-9.066-9.968
				c-2.058-1.551-9.71-2.977-9.853,0.941c-0.04,1.094-0.005,2.193,0.016,3.287c0.045,2.521,3.061,3.413,3.368,5.776
				c0-0.833,0-1.667,0-2.5c-0.41,1.96-4.613-0.757-5.616-1.575c-1.588-1.296-2.49-3.459-3.387-5.239
				c-2.577-5.118-6.553-9.228-10.657-13.157c-9.48-9.074-21.438-13.486-32.319-20.47c-5.662-3.634-10.183-8.554-14.733-13.44
				c-4.673-5.019-9.959-9.35-14.718-14.272c-8.382-8.669-12.823-19.934-15.902-31.404c-1.351-5.032-1.64-9.697-1.625-14.858
				c0.01-3.572-1.217-6.271-3.183-9.271c-7.664-11.694-19.786-20.918-31.144-28.753c-5.73-3.953-11.69-7.576-18.135-10.239
				c-6.969-2.879-14.532-2.592-21.929-2.734c-7.29-0.14-14.431-0.728-21.737-0.411c-7.62,0.331-15.159,0.621-22.575-1.463
				c0,0.833,0,1.667,0,2.5c12.478-8.042,28.931-8.106,43.002-11.5c14.665-3.537,23.194-15.517,33.288-25.616
				c5.949-5.952,12.808-9.227,20.254-12.894c1.532-0.755,3-1.612,4.461-2.493c1.591-0.958,4.774-1.066,6.611-1.5
				c4.227-0.998,8.442-1.918,12.758-2.444c8.448-1.029,16.048,0.742,23.934,3.561c7.28,2.603,14.902,5.354,22.2,1.382
				c0.157-0.085,0.012-1.685,0.011-1.881c-0.149-23.455,1.497-47.469,8.938-69.839c3.028-9.104,5.326-18.571,6.497-28.094
				c0.22-1.792,0.344-3.591,0.468-5.391c0.285-4.149,3.141,0.31,3.52,1.208c1.55,3.67,4.296,7.417,4.718,11.393
				c-0.001-0.818-0.002-1.637-0.003-2.456c-0.064,2.663-0.47,5.279-0.443,7.944c0.049,4.814,2.858,6.283,6.431,8.88
				c4.91,3.569,3.393,16.766,3.354,21.473c-0.037,4.545-0.126,9.088-0.102,13.634c0.022,4.152,0.344,7.359,2.508,11.031
				c4.436,7.525,2.354,17.16,1.615,25.427c-0.223,2.49-0.423,4.993-0.476,7.493c-0.046,2.221-1.55,4.031-2.455,5.969
				c-1.363,2.918-2.318,6.278-2.386,9.514c-0.096,4.593,0.038,9.528,4.914,11.628c10.611,4.571,21.242-8.446,27.119-15.187
				c3.962-4.544,7.94-9.063,12.909-12.539c5.511-3.854,12.452-5.76,18.738-7.917c14.02-4.809,26.361-12.305,38.951-19.983
				c11.965-7.297,24.363-13.851,36.036-21.627c11.948-7.959,22.669-17.812,33.614-27.068c11.111-9.396,21.53-19.449,31.738-29.811
				c5.145-5.223,10.087-10.633,14.67-16.357c3.426-4.279,5.703-10.681,10.63-13.452C577.53-63.15,576.818-65.25,577.16-65.442z"/>
		</g>
	</g>
	<path fill-rule="evenodd" clip-rule="evenodd" stroke="#000000" stroke-miterlimit="10" d="M419.16-82.288
		c5.316,8.197-1.341,16.435-2.5,22.501c-1.262,6.607,3.258,11.44,2,19.001c-5.64,5.378-5.045,11.265-6,17
		c-0.441,2.65-2.343,4.732-3,7.5c-1.636,6.89,0.958,12.484-2.5,18.501c-2.919,5.078-7.987,10.574-12.001,16.001
		c-7.782,10.523-15.797,21.315-23.001,32.501c-3.913,6.077-6.476,12.689-10.001,17.501c-4.06,5.543-14.083,9.879-16,15.501
		c-0.515,1.507,0.667,3.792,0,6c-2.381,7.873-16.872,9.299-18.001,16.501c-0.352,2.238,1.791,4.052,1.5,6
		c-1.234,8.262-12.975,8.238-13.501,18c-4.146,4.688-13.235,4.432-12.501,14c-10.311,8.024-14.003,22.667-28.501,26.502
		c-1.794,10.412,4.755,18.881,8.5,28c6.443,15.691,12.431,27.977,18.501,43.504c2.922,7.471,6.151,16.234,7.001,23.5
		c0.248,2.121-0.321,5.031,0,7c1.215,7.465,8.537,13.602,13.5,19.502c10.619,12.623,19.173,24.373,31.002,35.002
		c5.956,5.352,13.003,8.414,19.001,14c-11.873-1.223-22.614-5.939-33.002-10c-10.562-4.129-20.433-9.477-31.501-12.5
		c-1.15,10.336,7.426,19.555,9.5,31c0.789,4.357,1.051,10.533-0.5,15.502c-9.842-8.695-13.273-21.152-21.001-31.502
		c-6.511-8.719-18.245-17.479-28.002-23.502c-7.178-4.43-16.074-6.371-23-11.5c-5.146-3.811-11.96-11.508-17.002-17.5
		c-4.543-5.402-11.137-16.178-16.5-17.502c-2.242-0.553-5.408-0.189-7.001,1c-1.474,5.066,4.133,5.41,3.001,8.5
		c-7.074-0.809-7.542-5.93-10.501-10.5c-3.222-4.975-9.855-11.252-14.501-15c-9.057-7.307-22.113-11.139-32.001-19.502
		c-5.766-4.875-10.888-11.654-17.001-17c-9.003-7.875-14.292-13.828-19.001-25.502c-2.271-5.631-5.155-14.816-6-22
		c-0.34-2.896,0.568-6.062,0-9.002c-0.446-2.307-2.897-5.906-4.5-8c-8.622-11.267-22.327-22.229-35.502-30.501
		c-6.075-3.814-13.6-7.712-20.001-8.5c-6.878-0.847-14.156-0.319-21.501-1c-12.583-1.167-25.492,2.069-37.002-1.5
		c10.187-6.937,28.695-7.935,43.002-11.5c18.064-4.503,24.55-18.443,37.502-29.502c6.252-5.337,13.655-7.186,20.501-11.5
		c10.312-2.142,18.422-5.135,30.002-4c12.307,1.206,24.917,11.458,35.501,5c-0.063-11.438-0.345-22,1-30.501
		c1.73-10.938,2.274-22.811,5-32.501c0.793-2.818,2.228-6.214,3.5-10.5c2.938-9.896,5.972-20.47,6.5-33.502
		c3.197-0.02,3.389,3.524,4.5,6c0.869,1.936,2.996,4.418,3.5,7c0.624,3.192-0.909,6.979,0,10c1.188,3.948,6.615,4.737,8,8
		c2.552,9.521,0.985,26.568,1.5,37.502c0.228,4.841,3.756,6.896,4.5,11.501c1.638,10.143-0.897,20.887-1,32.001
		c-5.846,8.193-9.598,27.007,8.5,23.001c1.376-0.304,3.231-1.246,4.501-2c10.188-6.05,16.393-17.886,26-25.001
		c6.949-5.146,18.207-7.746,27.502-11.501c12.764-5.157,23.932-12.882,36.002-20.001c15.381-9.071,31.425-17.401,45.502-29.501
		c13.047-11.213,27.403-22.402,40.002-35.002c8.813-8.812,18.796-18.307,27.002-29.001c3.253-4.24,5.888-10.417,9.5-12
		C418.494-82.288,418.827-82.288,419.16-82.288z"/>
</g>
<g id="WellnesLogo" display="none">
	
		<rect x="-110.864" y="-140.43" display="inline" fill="#3399CC" stroke="#690A58" stroke-miterlimit="10" width="800" height="600"/>
	
		<image overflow="visible" width="108" height="86" xlink:href="../img_wellness/wellnessLogo.png"  transform="matrix(3.0463 0 0 2.9767 395.1362 47.8081)">
	</image>
	<path fill="none" stroke="#000000" stroke-width="3" stroke-miterlimit="10" d="M37.985,39.316
		c7.723,0.003,9.917,0.065,15.334-3.699c4.994-3.469,8.064-8.511,13.743-11.428c10.163-5.221,22.11-5.168,33.232-6.466
		c0.977-9.319,0.194-52.62,17.206-46.467c16.031,5.799,12.307,43.008,12.812,55.566c9.378,0.45,24.794-11.204,33.858-15.003
		c13.444-5.635,23.819-16.009,36.721-22.354c10.355,19.431-1.004,47.614-8.211,67.077c-3.949,10.664-9.363,14.868-15.299,22.945
		c-9.194,12.512-0.678,30.697,6.261,42.393c7.686,12.955,19.81,23.37,25.928,37.133c-7.453,3.177-15.542-2.205-22.197-5.171
		c0.9,5.618,1.345,12.124-0.079,17.431c-11.781-4.643-16.899-17.555-27.503-22.724c-12.104-5.899-22.826-13.85-32.113-23.582
		c-9.213-9.656-16.075-23.089-27.999-29.732c-9.447-5.264-17.603-6.852-23.538-17.012c-2.594-4.442-3.796-14.809-10.61-10.584
		c4.718-2.925-0.316-19.233-3.406-22.029c-7.179-6.495-19.364-2.007-27.989-2.444c-0.182-2.266-0.758-5.66-0.151-7.849"/>
	<g display="inline">
		<path fill="none" stroke="#FFFF00" stroke-width="0.5" stroke-miterlimit="10" d="M321.706,7.559
			c-15.569,10.25-32.569,19.25-49.569,30.25c-1,1-3,0-4,1c-11,6-22,7-33,14c-8,5-15,12-21,21c-2,1-4,3-5,5c-1,1-2,1-3,2
			c-7,4-16,3-18-6c0-2,0-5,0-7c1-4,4-7,4-10c2-9,4-19,1-28c-4-15-4-30-4-46c0-7-7-9-10-15c-1-3,2-6,1-9c-3-4-4-10-8.489-13.094
			c-0.76,18.472,3.378,0.96,0,0c-4.511,25.094-10.511,48.094-15.511,74.094c-2,12,0,23-2,34c-6,2-12,1-17-2c-23-10-51-4-69,14
			c-7,6-13,13-20,19c-14,11-30,10-47,14c-5,1-8,4-11.998,5.414c1,0.315,2.134-0.509,0,0c1,0.315,7.64,1.779,7.212-1.085
			c-0.428-2.866-6.347,0.492-7.212,1.085c21.179,4.277,43.044-1.978,63.998,4.586c18.302,5.733,32.817,18.045,45.871,31.686
			c3.256,3.402,7.325,6.927,8.7,11.599c1.246,4.233,0.21,9.419,0.691,13.847c1.025,9.446,4.072,18.683,8.977,26.826
			c5.222,8.671,12.817,15.909,19.965,22.99c7.199,7.132,14.611,14.63,23.592,19.521c4.642,2.527,9.684,3.935,14.2,6.797
			c4.554,2.887,8.66,6.431,12.41,10.294c3.953,4.072,7.518,8.508,10.88,13.074c2.492,3.385,3.595,7.451,8.715,6.366
			c-2.528-2.524-5.32-7.425-0.407-9.087c4.407-0.913,8.407,2.087,11.407,5.087c8,11,15,22,26,30s23,11,34,19c16,12,24,28,35,45
			c1,1,2,1,3.019,2.428c0.39-1.203-0.803-1.128,0,0c0.39-1.203,0.841-6.197-1.893-5.513c-2.855,0.714,1.063,4.792,1.893,5.513
			c2.437-7.879,0.922-16.436-2.108-23.927c-2.928-7.238-7.786-14.411-6.892-22.575c22.01,6.023,41.441,20.116,64.503,22.5
			c-7.318-6.797-16.38-11.378-23.579-18.322c-7.821-7.544-14.345-16.26-21.346-24.531c-5.858-6.922-14.036-13.257-17.441-21.907
			c-1.841-4.679-0.818-10.043-1.826-14.931c-1.102-5.345-2.968-10.524-4.889-15.62c-0.465-1.234-0.941-2.465-1.423-3.692"/>
		<path fill="none" stroke="#FFFF00" stroke-miterlimit="10" d="M349.607,80.293c1.436-0.668,1.529-3.485,2.529-4.485
			c5-3,10-7,13-12c9-16,15-33,29-45c9-9,14-20,15-33c1-10,5-20,9-29c2-4-2-8-3-12c-1-9,9-17,4-26c-1-1-2-2-3-1c-8,9-14,18-22,28
			c-9,11-19,20-29,30c-2,2-4,2-6,3c-5,6-11,10-16.678,14.137"/>
		<g>
			<g>
				<path fill="none" stroke="#FFFFFF" stroke-miterlimit="10" d="M574.66-41.69c1.159-6.067,7.816-14.304,2.5-22.501h-1
					c-3.612,1.584-6.247,7.761-9.5,12c-8.206,10.695-18.188,20.189-27.002,29.001c-12.599,12.6-26.955,23.789-40.002,35.002
					c-14.077,12.1-30.121,20.43-45.502,29.501c-12.07,7.119-23.238,14.844-36.002,20.001c-9.295,3.755-20.553,6.355-27.502,11.501
					c-9.607,7.115-15.812,18.951-26,25.001c-1.27,0.754-3.125,1.696-4.501,2c-18.099,4.006-14.347-14.808-8.501-23.001
					c0.104-11.115,2.639-21.858,1-32.001c-0.743-4.605-4.271-6.66-4.5-11.501c-0.514-10.934,1.053-27.981-1.5-37.502
					c-1.385-3.263-6.812-4.052-8-8c-0.909-3.022,0.623-6.809,0-10c-0.504-2.583-2.631-5.064-3.5-7c-1.111-2.477-1.303-6.02-4.5-6
					c-0.529,13.032-3.562,23.606-6.501,33.502c-1.272,4.286-2.707,7.682-3.5,10.5c-2.727,9.691-3.271,21.564-5.001,32.501
					c-1.344,8.502-1.062,19.063-1,30.501c-10.584,6.458-23.193-3.794-35.501-5c-11.58-1.135-19.689,1.858-30.002,4
					c-6.847,4.314-14.249,6.163-20.501,11.5c-12.952,11.059-19.438,24.999-37.502,29.502c-14.307,3.566-32.815,4.564-43.002,11.5
					c11.51,3.569,24.419,0.333,37.002,1.5c7.345,0.681,14.623,0.153,21.501,1c6.401,0.788,13.926,4.686,20.001,8.5
					c13.176,8.273,26.88,19.234,35.502,30.501c1.603,2.094,4.054,5.693,4.5,8c0.568,2.939-0.34,6.105,0,9.002
					c0.846,7.184,3.729,16.369,6,22c4.709,11.674,9.998,17.627,19.002,25.502c6.112,5.346,11.234,12.125,17,17
					c9.889,8.363,22.945,12.195,32.002,19.502c4.646,3.748,11.279,10.025,14.501,15c2.959,4.57,3.427,9.691,10.501,10.5
					c1.132-3.09-4.475-3.434-3.001-8.5c1.593-1.189,4.759-1.553,7.001-1c5.363,1.324,11.957,12.1,16.5,17.502
					c5.042,5.992,11.855,13.689,17.002,17.5c6.926,5.129,15.822,7.07,23,11.5c9.757,6.023,21.491,14.783,28.002,23.502
					c7.728,10.35,11.159,22.807,21.001,31.502c1.551-4.969,1.289-11.145,0.5-15.502c-2.074-11.445-10.65-20.664-9.5-31
					c11.068,3.023,20.938,8.371,31.501,12.5c10.388,4.061,21.129,8.777,33.002,10c-5.998-5.586-13.045-8.648-19.001-14
					c-11.829-10.629-20.383-22.379-31.002-35.002c-4.963-5.9-12.285-12.037-13.5-19.502c-0.321-1.969,0.248-4.879,0-7
					c-0.85-7.266-4.079-16.029-7.001-23.5c-6.07-15.527-12.058-27.812-18.501-43.504c-3.745-9.119-10.294-17.588-8.5-28
					c14.498-3.836,18.19-18.479,28.501-26.502c-0.734-9.568,8.355-9.312,12.501-14.001c0.526-9.762,12.267-9.739,13.501-18
					c0.291-1.949-1.852-3.763-1.5-6c1.129-7.202,15.62-8.628,18.001-16.501c0.667-2.208-0.515-4.493,0-6
					c1.917-5.622,11.94-9.958,16-15.501c3.525-4.812,6.088-11.424,10.001-17.501c7.204-11.187,15.219-21.979,23.001-32.501
					c4.014-5.427,9.082-10.923,12.001-16.001c3.458-6.017,0.864-11.611,2.5-18.501c0.657-2.768,2.559-4.851,3-7.5
					c0.955-5.735,0.36-11.623,6-17C577.917-30.25,573.398-35.083,574.66-41.69z"/>
			</g>
		</g>
	</g>
	<path fill-rule="evenodd" clip-rule="evenodd" stroke="#000000" stroke-miterlimit="10" d="M419.16-82.288
		c5.316,8.197-1.341,16.435-2.5,22.501c-1.262,6.607,3.258,11.44,2,19.001c-5.64,5.378-5.045,11.265-6,17
		c-0.441,2.65-2.343,4.732-3,7.5c-1.636,6.89,0.958,12.484-2.5,18.501c-2.919,5.078-7.987,10.574-12.001,16.001
		c-7.782,10.523-15.797,21.315-23.001,32.501c-3.913,6.077-6.476,12.689-10.001,17.501c-4.06,5.543-14.083,9.879-16,15.501
		c-0.515,1.507,0.667,3.792,0,6c-2.381,7.873-16.872,9.299-18.001,16.501c-0.352,2.238,1.791,4.052,1.5,6
		c-1.234,8.262-12.975,8.238-13.501,18c-4.146,4.688-13.235,4.432-12.501,14c-10.311,8.024-14.003,22.667-28.501,26.502
		c-1.794,10.412,4.755,18.881,8.5,28c6.443,15.691,12.431,27.977,18.501,43.504c2.922,7.471,6.151,16.234,7.001,23.5
		c0.248,2.121-0.321,5.031,0,7c1.215,7.465,8.537,13.602,13.5,19.502c10.619,12.623,19.173,24.373,31.002,35.002
		c5.956,5.352,13.003,8.414,19.001,14c-11.873-1.223-22.614-5.939-33.002-10c-10.562-4.129-20.433-9.477-31.501-12.5
		c-1.15,10.336,7.426,19.555,9.5,31c0.789,4.357,1.051,10.533-0.5,15.502c-9.842-8.695-13.273-21.152-21.001-31.502
		c-6.511-8.719-18.245-17.479-28.002-23.502c-7.178-4.43-16.074-6.371-23-11.5c-5.146-3.811-11.96-11.508-17.002-17.5
		c-4.543-5.402-11.137-16.178-16.5-17.502c-2.242-0.553-5.408-0.189-7.001,1c-1.474,5.066,4.133,5.41,3.001,8.5
		c-7.074-0.809-7.542-5.93-10.501-10.5c-3.222-4.975-9.855-11.252-14.501-15c-9.057-7.307-22.113-11.139-32.001-19.502
		c-5.766-4.875-10.888-11.654-17.001-17c-9.003-7.875-14.292-13.828-19.001-25.502c-2.271-5.631-5.155-14.816-6-22
		c-0.34-2.896,0.568-6.062,0-9.002c-0.446-2.307-2.897-5.906-4.5-8c-8.622-11.267-22.327-22.229-35.502-30.501
		c-6.075-3.814-13.6-7.712-20.001-8.5c-6.878-0.847-14.156-0.319-21.501-1c-12.583-1.167-25.492,2.069-37.002-1.5
		c10.187-6.937,28.695-7.935,43.002-11.5c18.064-4.503,24.55-18.443,37.502-29.502c6.252-5.337,13.655-7.186,20.501-11.5
		c10.312-2.142,18.422-5.135,30.002-4c12.307,1.206,24.917,11.458,35.501,5c-0.063-11.438-0.345-22,1-30.501
		c1.73-10.938,2.274-22.811,5-32.501c0.793-2.818,2.228-6.214,3.5-10.5c2.938-9.896,5.972-20.47,6.5-33.502
		c3.197-0.02,3.389,3.524,4.5,6c0.869,1.936,2.996,4.418,3.5,7c0.624,3.192-0.909,6.979,0,10c1.188,3.948,6.615,4.737,8,8
		c2.552,9.521,0.985,26.568,1.5,37.502c0.228,4.841,3.756,6.896,4.5,11.501c1.638,10.143-0.897,20.887-1,32.001
		c-5.846,8.193-9.598,27.007,8.5,23.001c1.376-0.304,3.231-1.246,4.501-2c10.188-6.05,16.393-17.886,26-25.001
		c6.949-5.146,18.207-7.746,27.502-11.501c12.764-5.157,23.932-12.882,36.002-20.001c15.381-9.071,31.425-17.401,45.502-29.501
		c13.047-11.213,27.403-22.402,40.002-35.002c8.813-8.812,18.796-18.307,27.002-29.001c3.253-4.24,5.888-10.417,9.5-12
		C418.494-82.288,418.827-82.288,419.16-82.288z"/>
</g>
<g id="LogoPlusText" display="none">
	<rect x="-110.864" y="-139.43" fill="#3399CC" stroke="#690A58" stroke-miterlimit="10" width="800" height="600"/>
	
		<image overflow="visible" width="108" height="86" xlink:href="../img_wellness/wellnessLogo.png"  transform="matrix(3.0463 0 0 2.9767 395.1362 47.8081)">
	</image>
	<path fill="none" stroke="#000000" stroke-width="3" stroke-miterlimit="10" d="M37.985,39.316
		c7.723,0.003,9.917,0.065,15.334-3.699c4.994-3.469,8.064-8.511,13.743-11.428c10.163-5.221,22.11-5.168,33.232-6.466
		c0.977-9.319,0.194-52.62,17.206-46.467c16.031,5.799,12.307,43.008,12.812,55.566c9.378,0.45,24.794-11.204,33.858-15.003
		c13.444-5.635,23.819-16.009,36.721-22.354c10.355,19.431-1.004,47.614-8.211,67.077c-3.949,10.664-9.363,14.868-15.299,22.945
		c-9.194,12.512-0.678,30.697,6.261,42.393c7.686,12.955,19.81,23.37,25.928,37.133c-7.453,3.177-15.542-2.205-22.197-5.171
		c0.9,5.618,1.345,12.124-0.079,17.431c-11.781-4.643-16.899-17.555-27.503-22.724c-12.104-5.899-22.826-13.85-32.113-23.582
		c-9.213-9.656-16.075-23.089-27.999-29.732c-9.447-5.264-17.603-6.852-23.538-17.012c-2.594-4.442-3.796-14.809-10.61-10.584
		c4.718-2.925-0.316-19.233-3.406-22.029c-7.179-6.495-19.364-2.007-27.989-2.444c-0.182-2.266-0.758-5.66-0.151-7.849"/>
	<g display="inline">
		<path fill="#FAFAD2" stroke="#CCCCCC" stroke-width="0.5" stroke-miterlimit="10" d="M44.536-33.587
			c-2.593,1.707-5.425,3.207-8.257,5.039c-0.167,0.167-0.5,0-0.667,0.167c-1.832,1-3.665,1.166-5.497,2.333
			c-1.332,0.833-2.499,1.999-3.498,3.498c-0.333,0.167-0.667,0.5-0.833,0.833c-0.167,0.166-0.333,0.166-0.5,0.333
			c-1.166,0.666-2.665,0.5-2.998-1c0-0.333,0-0.833,0-1.166c0.167-0.667,0.666-1.166,0.666-1.666c0.333-1.5,0.666-3.165,0.167-4.665
			c-0.667-2.499-0.667-4.997-0.667-7.663c0-1.166-1.166-1.499-1.666-2.499c-0.167-0.499,0.333-0.999,0.167-1.499
			c-0.5-0.667-0.666-1.666-1.414-2.181c-0.127,3.077,0.562,0.16,0,0c-0.752,4.18-1.751,8.011-2.583,12.343
			c-0.333,1.999,0,3.831-0.333,5.664c-1,0.333-1.999,0.166-2.832-0.333c-3.831-1.666-8.495-0.667-11.494,2.332
			c-1.166,0.999-2.166,2.166-3.332,3.165c-2.332,1.833-4.998,1.666-7.829,2.332c-0.833,0.167-1.333,0.667-1.999,0.902
			c0.166,0.053,0.355-0.084,0,0c0.166,0.053,1.272,0.297,1.201-0.18c-0.071-0.478-1.057,0.082-1.201,0.18
			c3.528,0.712,7.17-0.329,10.661,0.765c3.049,0.955,5.467,3.005,7.641,5.278c0.543,0.567,1.22,1.154,1.449,1.932
			c0.208,0.706,0.035,1.569,0.116,2.307c0.17,1.573,0.678,3.112,1.495,4.468c0.87,1.445,2.136,2.65,3.326,3.83
			c1.199,1.188,2.434,2.437,3.93,3.252c0.773,0.42,1.613,0.655,2.366,1.131c0.758,0.481,1.442,1.071,2.066,1.715
			C22.846,8.038,23.439,8.777,24,9.537c0.415,0.564,0.599,1.241,1.452,1.06c-0.421-0.42-0.886-1.236-0.068-1.513
			c0.734-0.152,1.401,0.347,1.9,0.847c1.333,1.832,2.499,3.665,4.332,4.997c1.832,1.333,3.831,1.833,5.663,3.166
			c2.666,1.999,3.998,4.664,5.83,7.496c0.167,0.167,0.333,0.167,0.503,0.404c0.064-0.201-0.134-0.188,0,0
			c0.064-0.201,0.14-1.032-0.316-0.918c-0.476,0.119,0.177,0.798,0.316,0.918c0.406-1.312,0.154-2.737-0.352-3.985
			c-0.488-1.206-1.297-2.4-1.148-3.76c3.667,1.003,6.903,3.351,10.745,3.748c-1.219-1.132-2.729-1.895-3.928-3.052
			c-1.303-1.257-2.39-2.708-3.556-4.086c-0.976-1.154-2.338-2.208-2.905-3.649c-0.307-0.779-0.136-1.673-0.304-2.487
			c-0.184-0.891-0.495-1.753-0.814-2.602c-0.078-0.206-0.157-0.411-0.237-0.616"/>
		<path fill="#FFFFCC" stroke="#CCCCCC" stroke-miterlimit="10" d="M49.184-21.471c0.239-0.112,0.254-0.581,0.421-0.748
			c0.833-0.5,1.666-1.166,2.166-1.999c1.499-2.665,2.499-5.497,4.831-7.496c1.499-1.5,2.332-3.332,2.499-5.498
			c0.167-1.665,0.833-3.331,1.5-4.83c0.333-0.667-0.333-1.333-0.5-1.999c-0.166-1.5,1.5-2.832,0.667-4.331
			c-0.167-0.167-0.333-0.333-0.5-0.167c-1.333,1.499-2.332,2.998-3.665,4.664c-1.499,1.833-3.165,3.332-4.831,4.998
			c-0.333,0.333-0.667,0.333-1,0.5c-0.833,1-1.833,1.666-2.778,2.355"/>
		<g>
			<path fill="#FFFFFF" d="M86.672-41.791c0.193-1.011,1.302-2.383,0.417-3.749h-0.167c-0.602,0.264-1.04,1.293-1.582,2
				c-1.367,1.781-3.03,3.363-4.498,4.831c-2.099,2.099-4.49,3.963-6.664,5.831c-2.344,2.015-5.017,3.403-7.579,4.914
				c-2.011,1.186-3.871,2.473-5.998,3.331c-1.548,0.626-3.423,1.059-4.581,1.916c-1.6,1.186-2.634,3.157-4.331,4.165
				c-0.212,0.125-0.521,0.283-0.75,0.333c-3.015,0.667-2.39-2.466-1.416-3.832c0.017-1.852,0.439-3.641,0.167-5.331
				c-0.124-0.767-0.711-1.109-0.75-1.916c-0.085-1.822,0.176-4.661-0.249-6.247c-0.231-0.543-1.136-0.675-1.333-1.333
				c-0.152-0.503,0.104-1.134,0-1.666c-0.084-0.43-0.438-0.844-0.583-1.166c-0.186-0.413-0.217-1.002-0.75-1
				c-0.088,2.17-0.593,3.932-1.083,5.58c-0.211,0.714-0.451,1.28-0.583,1.749c-0.454,1.615-0.545,3.592-0.833,5.415
				c-0.224,1.416-0.177,3.175-0.167,5.081c-1.763,1.076-3.863-0.632-5.913-0.833c-1.929-0.189-3.28,0.31-4.998,0.666
				c-1.141,0.718-2.373,1.026-3.415,1.916c-2.158,1.842-3.238,4.164-6.247,4.914c-2.383,0.595-5.467,0.76-7.164,1.916
				c1.918,0.595,4.068,0.055,6.164,0.25c1.223,0.114,2.436,0.025,3.582,0.167c1.066,0.131,2.32,0.781,3.332,1.416
				c2.195,1.378,4.478,3.204,5.914,5.081c0.267,0.349,0.675,0.949,0.75,1.333c0.094,0.49-0.057,1.017,0,1.5
				c0.141,1.197,0.622,2.727,1,3.665c0.784,1.945,1.666,2.937,3.165,4.248c1.018,0.891,1.872,2.02,2.832,2.832
				c1.647,1.394,3.822,2.032,5.331,3.249c0.774,0.625,1.879,1.67,2.416,2.499c0.493,0.762,0.571,1.615,1.749,1.75
				c0.189-0.515-0.745-0.572-0.5-1.416c0.266-0.198,0.793-0.258,1.167-0.167c0.894,0.221,1.992,2.016,2.749,2.916
				c0.84,0.998,1.975,2.28,2.832,2.915c1.154,0.854,2.636,1.178,3.832,1.916c1.625,1.003,3.58,2.462,4.665,3.915
				c1.287,1.724,1.858,3.799,3.498,5.248c0.258-0.828,0.214-1.856,0.083-2.582c-0.345-1.907-1.774-3.442-1.583-5.164
				c1.844,0.504,3.488,1.395,5.248,2.082c1.73,0.676,3.52,1.462,5.498,1.666c-1-0.93-2.173-1.44-3.165-2.332
				c-1.971-1.771-3.395-3.727-5.165-5.83c-0.826-0.983-2.046-2.005-2.248-3.249c-0.054-0.329,0.041-0.813,0-1.166
				c-0.142-1.21-0.68-2.67-1.167-3.915c-1.011-2.587-2.009-4.633-3.082-7.247c-0.624-1.52-1.715-2.93-1.416-4.665
				c2.415-0.639,3.03-3.077,4.747-4.414c-0.122-1.594,1.392-1.551,2.083-2.333c0.087-1.626,2.043-1.622,2.249-2.999
				c0.049-0.324-0.308-0.626-0.249-1c0.188-1.2,2.602-1.437,2.998-2.748c0.111-0.368-0.086-0.749,0-1
				c0.319-0.937,1.989-1.659,2.665-2.582c0.588-0.802,1.015-1.903,1.667-2.916c1.2-1.863,2.535-3.661,3.831-5.414
				c0.669-0.904,1.514-1.819,2-2.665c0.576-1.002,0.144-1.935,0.416-3.082c0.11-0.461,0.427-0.808,0.5-1.249
				c0.159-0.956,0.06-1.936,0.999-2.832C87.215-39.885,86.462-40.69,86.672-41.791z M48.758-21.192"/>
			<g>
				<path fill="none" stroke="#999999" stroke-miterlimit="10" d="M86.672-41.791c0.193-1.011,1.302-2.383,0.417-3.749h-0.167
					c-0.602,0.264-1.04,1.293-1.582,2c-1.367,1.781-3.03,3.363-4.498,4.831c-2.099,2.099-4.49,3.963-6.664,5.831
					c-2.344,2.015-5.017,3.403-7.579,4.914c-2.011,1.186-3.871,2.473-5.998,3.331c-1.548,0.626-3.423,1.059-4.581,1.916
					c-1.6,1.186-2.634,3.157-4.331,4.165c-0.212,0.125-0.521,0.283-0.75,0.333c-3.015,0.667-2.39-2.466-1.416-3.832
					c0.017-1.852,0.439-3.641,0.167-5.331c-0.124-0.767-0.711-1.109-0.75-1.916c-0.085-1.822,0.176-4.661-0.249-6.247
					c-0.231-0.543-1.136-0.675-1.333-1.333c-0.152-0.503,0.104-1.134,0-1.666c-0.084-0.43-0.438-0.844-0.583-1.166
					c-0.186-0.413-0.217-1.002-0.75-1c-0.088,2.17-0.593,3.932-1.083,5.58c-0.211,0.714-0.451,1.28-0.583,1.749
					c-0.454,1.615-0.545,3.592-0.833,5.415c-0.224,1.416-0.177,3.175-0.167,5.081c-1.763,1.076-3.863-0.632-5.913-0.833
					c-1.929-0.189-3.28,0.31-4.998,0.666c-1.141,0.718-2.373,1.026-3.415,1.916c-2.158,1.842-3.238,4.164-6.247,4.914
					c-2.383,0.595-5.467,0.76-7.164,1.916c1.918,0.595,4.068,0.055,6.164,0.25c1.223,0.114,2.436,0.025,3.582,0.167
					c1.066,0.131,2.32,0.781,3.332,1.416c2.195,1.378,4.478,3.204,5.914,5.081c0.267,0.349,0.675,0.949,0.75,1.333
					c0.094,0.49-0.057,1.017,0,1.5c0.141,1.197,0.622,2.727,1,3.665c0.784,1.945,1.666,2.937,3.165,4.248
					c1.018,0.891,1.872,2.02,2.832,2.832c1.647,1.394,3.822,2.032,5.331,3.249c0.774,0.625,1.879,1.67,2.416,2.499
					c0.493,0.762,0.571,1.615,1.749,1.75c0.189-0.515-0.745-0.572-0.5-1.416c0.266-0.198,0.793-0.258,1.167-0.167
					c0.894,0.221,1.992,2.016,2.749,2.916c0.84,0.998,1.975,2.28,2.832,2.915c1.154,0.854,2.636,1.178,3.832,1.916
					c1.625,1.003,3.58,2.462,4.665,3.915c1.287,1.724,1.858,3.799,3.498,5.248c0.258-0.828,0.214-1.856,0.083-2.582
					c-0.345-1.907-1.774-3.442-1.583-5.164c1.844,0.504,3.488,1.395,5.248,2.082c1.73,0.676,3.52,1.462,5.498,1.666
					c-1-0.93-2.173-1.44-3.165-2.332c-1.971-1.771-3.395-3.727-5.165-5.83c-0.826-0.983-2.046-2.005-2.248-3.249
					c-0.054-0.329,0.041-0.813,0-1.166c-0.142-1.21-0.68-2.67-1.167-3.915c-1.011-2.587-2.009-4.633-3.082-7.247
					c-0.624-1.52-1.715-2.93-1.416-4.665c2.415-0.639,3.03-3.077,4.747-4.414c-0.122-1.594,1.392-1.551,2.083-2.333
					c0.087-1.626,2.043-1.622,2.249-2.999c0.049-0.324-0.308-0.626-0.249-1c0.188-1.2,2.602-1.437,2.998-2.748
					c0.111-0.368-0.086-0.749,0-1c0.319-0.937,1.989-1.659,2.665-2.582c0.588-0.802,1.015-1.903,1.667-2.916
					c1.2-1.863,2.535-3.661,3.831-5.414c0.669-0.904,1.514-1.819,2-2.665c0.576-1.002,0.144-1.935,0.416-3.082
					c0.11-0.461,0.427-0.808,0.5-1.249c0.159-0.956,0.06-1.936,0.999-2.832C87.215-39.885,86.462-40.69,86.672-41.791z"/>
			</g>
		</g>
	</g>
	<path fill-rule="evenodd" clip-rule="evenodd" stroke="#000000" stroke-miterlimit="10" d="M516.449-78.288
		c5.316,8.197-1.341,16.435-2.5,22.501c-1.262,6.607,3.258,11.44,2,19.001c-5.64,5.378-5.045,11.265-6,17
		c-0.441,2.65-2.343,4.732-3,7.5c-1.636,6.89,0.958,12.484-2.5,18.501c-2.919,5.078-7.987,10.574-12.001,16.001
		c-7.782,10.523-15.797,21.315-23.001,32.501c-3.913,6.077-6.476,12.689-10.001,17.501c-4.06,5.543-14.083,9.879-16,15.501
		c-0.515,1.507,0.667,3.792,0,6c-2.381,7.873-16.872,9.299-18.001,16.501c-0.352,2.238,1.791,4.052,1.5,6
		c-1.234,8.262-12.975,8.238-13.501,18c-4.146,4.688-13.235,4.432-12.501,14c-10.311,8.024-14.003,22.667-28.501,26.502
		c-1.794,10.412,4.755,18.881,8.5,28c6.443,15.691,12.431,27.977,18.501,43.504c2.922,7.471,6.151,16.234,7.001,23.5
		c0.248,2.121-0.321,5.031,0,7c1.215,7.465,8.537,13.602,13.5,19.502c10.619,12.623,19.173,24.373,31.002,35.002
		c5.956,5.352,13.003,8.414,19.001,14c-11.873-1.223-22.614-5.939-33.002-10c-10.562-4.129-20.433-9.477-31.501-12.5
		c-1.15,10.336,7.426,19.555,9.5,31c0.789,4.357,1.051,10.533-0.5,15.502c-9.842-8.695-13.273-21.152-21.001-31.502
		c-6.511-8.719-18.245-17.479-28.002-23.502c-7.178-4.43-16.074-6.371-23-11.5c-5.146-3.811-11.96-11.508-17.002-17.5
		c-4.543-5.402-11.137-16.178-16.5-17.502c-2.242-0.553-5.408-0.189-7.001,1c-1.474,5.066,4.133,5.41,3.001,8.5
		c-7.074-0.809-7.542-5.93-10.501-10.5c-3.222-4.975-9.855-11.252-14.501-15c-9.057-7.307-22.113-11.139-32.001-19.502
		c-5.766-4.875-10.888-11.654-17.001-17c-9.003-7.875-14.292-13.828-19.001-25.502c-2.271-5.631-5.155-14.816-6-22
		c-0.34-2.896,0.568-6.062,0-9.002c-0.446-2.307-2.897-5.906-4.5-8c-8.622-11.267-22.327-22.229-35.502-30.501
		c-6.075-3.814-13.6-7.712-20.001-8.5c-6.878-0.847-14.156-0.319-21.501-1c-12.583-1.167-25.492,2.069-37.002-1.5
		c10.187-6.937,28.695-7.935,43.002-11.5c18.064-4.503,24.55-18.443,37.502-29.502c6.252-5.337,13.655-7.186,20.501-11.5
		c10.312-2.142,18.422-5.135,30.002-4c12.307,1.206,24.917,11.458,35.501,5c-0.063-11.438-0.345-22,1-30.501
		c1.73-10.938,2.274-22.811,5-32.501c0.793-2.818,2.228-6.214,3.5-10.5c2.938-9.896,5.972-20.47,6.5-33.502
		c3.197-0.02,3.389,3.524,4.5,6c0.869,1.936,2.996,4.418,3.5,7c0.624,3.192-0.909,6.979,0,10c1.188,3.948,6.615,4.737,8,8
		c2.552,9.521,0.985,26.568,1.5,37.502c0.228,4.841,3.756,6.896,4.5,11.501c1.639,10.143-0.896,20.887-1,32.001
		c-5.846,8.193-9.597,27.007,8.501,23.001c1.376-0.304,3.231-1.246,4.501-2c10.188-6.05,16.393-17.886,26-25.001
		c6.949-5.146,18.207-7.746,27.502-11.501c12.764-5.157,23.932-12.882,36.002-20.001c15.381-9.071,31.425-17.401,45.502-29.501
		c13.047-11.213,27.403-22.402,40.002-35.002c8.813-8.812,18.796-18.307,27.002-29.001c3.253-4.24,5.888-10.417,9.5-12
		C515.783-78.288,516.116-78.288,516.449-78.288z"/>
	<rect id="_x3C_Slice_x3E_" x="-11.864" y="-52.192" fill="none" width="247" height="84"/>
	<text transform="matrix(1 0 0 1 320.4702 -26.5254)"><tspan x="0" y="0" display="inline" fill="#FFFFFF" font-family="'Zapfino'" font-size="18">Winchester</tspan><tspan x="0" y="32.8" display="inline" fill="#FFFFFF" font-family="'Zapfino'" font-size="18">Wellness</tspan><tspan x="0" y="55.6" display="inline" fill="#FFFFFF" font-family="'Zapfino'" font-size="18">Center</tspan></text>
</g>
<g id="birds">
	<path display="none" fill-rule="evenodd" clip-rule="evenodd" fill="#FFFFFF" stroke="#000000" stroke-miterlimit="10" d="
		M449.674,26.161c2.575,5.071-1.838,9.385-2.904,12.806c-1.161,3.726,1.165,6.805-0.054,11.081
		c-3.637,2.733-3.668,6.165-4.594,9.408c-0.428,1.499-1.671,2.575-2.231,4.127c-1.398,3.865-0.243,7.258-2.647,10.5
		c-2.03,2.737-5.34,5.575-8.03,8.441c-5.217,5.559-10.587,11.257-15.509,17.235c-2.673,3.248-4.593,6.892-6.96,9.437
		c-2.724,2.931-8.851,4.777-10.33,7.893c-0.398,0.835,0.146,2.229-0.386,3.458c-1.895,4.383-10.441,4.263-11.562,8.34
		c-0.349,1.266,0.785,2.452,0.488,3.555c-1.251,4.681-8.099,3.905-9.033,9.497c-2.72,2.433-8.007,1.694-8.192,7.256
		c-6.531,3.954-9.626,12.153-18.332,13.42c-1.716,5.884,1.561,11.191,3.16,16.69c2.752,9.463,5.454,16.932,7.999,26.276
		c1.225,4.495,2.546,9.756,2.574,13.999c0.01,1.238-0.511,2.879-0.45,4.034c0.229,4.381,4.107,8.395,6.624,12.118
		c5.385,7.966,9.621,15.295,15.838,22.189c3.132,3.472,7.048,5.695,10.188,9.305c-6.849-1.477-12.813-4.895-18.612-7.91
		c-5.897-3.066-11.312-6.791-17.576-9.253c-1.335,5.883,3.076,11.753,3.551,18.483c0.181,2.563-0.063,6.14-1.287,8.902
		c-5.184-5.651-6.386-13.054-10.229-19.521c-3.239-5.448-9.522-11.261-14.827-15.366c-3.904-3.02-8.971-4.718-12.682-8.124
		c-2.757-2.531-6.237-7.411-8.795-11.192c-2.303-3.409-5.457-10.049-8.502-11.16c-1.272-0.464-3.144-0.462-4.148,0.121
		c-1.187,2.823,2.063,3.388,1.204,5.094c-4.075-0.926-4.02-3.908-5.452-6.734c-1.561-3.077-5.026-7.126-7.496-9.588
		c-4.815-4.801-12.186-7.858-17.418-13.321c-3.05-3.186-5.604-7.426-8.827-10.904c-4.747-5.125-7.45-8.899-9.447-15.934
		c-0.963-3.394-2.056-8.875-2.088-13.07c-0.012-1.691,0.722-3.457,0.579-5.188c-0.112-1.358-1.311-3.592-2.111-4.903
		c-4.306-7.055-11.598-14.264-18.753-19.888c-3.299-2.594-7.439-5.33-11.123-6.201c-3.959-0.935-8.239-1.104-12.481-1.975
		c-7.266-1.491-15.005-0.466-21.492-3.271c6.389-3.335,17.251-2.706,25.828-3.831c10.829-1.42,15.508-9.033,23.776-14.564
		c3.991-2.669,8.429-3.253,12.7-5.294c6.155-0.564,11.078-1.762,17.761-0.354c7.104,1.495,13.802,8.225,20.392,5.19
		c0.699-6.596,1.213-12.701,2.544-17.514c1.712-6.191,2.792-12.999,5.006-18.406c0.644-1.573,1.699-3.437,2.717-5.824
		c2.351-5.512,4.8-11.41,5.945-18.886c1.866,0.197,1.75,2.251,2.239,3.75c0.384,1.173,1.465,2.741,1.593,4.262
		c0.159,1.88-0.979,3.963-0.643,5.764c0.439,2.353,3.556,3.16,4.154,5.131c0.877,5.653-1.133,15.376-1.534,21.711
		c-0.179,2.805,1.748,4.219,1.886,6.921c0.305,5.953-1.865,11.979-2.64,18.378c-3.937,4.342-7.335,14.941,3.481,13.81
		c0.822-0.086,1.965-0.508,2.755-0.86c6.333-2.824,10.713-9.242,16.776-12.718c4.385-2.514,11.12-3.28,16.784-4.84
		c7.778-2.142,14.791-5.868,22.291-9.186c9.557-4.228,19.452-7.985,28.443-14.043c8.333-5.614,17.428-11.129,25.587-17.571
		c5.71-4.506,12.144-9.328,17.619-14.958c2.17-2.232,4.104-5.621,6.313-6.298C449.286,26.118,449.481,26.139,449.674,26.161z"/>
	<path display="none" fill-rule="evenodd" clip-rule="evenodd" fill="#FFFFFF" stroke="#000000" stroke-miterlimit="10" d="
		M524.864,49.637c2.575,5.07-1.839,9.385-2.904,12.806c-1.161,3.726,1.165,6.805-0.055,11.081c-3.636,2.733-3.668,6.165-4.593,9.408
		c-0.428,1.499-1.671,2.575-2.232,4.127c-1.397,3.865-0.243,7.258-2.647,10.5c-2.029,2.737-5.34,5.575-8.029,8.441
		c-5.218,5.559-10.587,11.257-15.51,17.235c-2.673,3.248-4.593,6.892-6.959,9.437c-2.725,2.931-8.852,4.777-10.331,7.892
		c-0.397,0.836,0.146,2.229-0.386,3.459c-1.895,4.382-10.44,4.262-11.562,8.339c-0.349,1.267,0.785,2.452,0.489,3.556
		c-1.251,4.682-8.099,3.904-9.033,9.496c-2.721,2.433-8.007,1.693-8.192,7.256c-6.531,3.954-9.627,12.153-18.333,13.421
		c-1.715,5.885,1.561,11.191,3.16,16.69c2.752,9.463,5.455,16.932,8,26.276c1.224,4.495,2.546,9.756,2.573,13.999
		c0.01,1.238-0.51,2.879-0.449,4.034c0.229,4.381,4.106,8.395,6.624,12.118c5.385,7.966,9.62,15.295,15.838,22.189
		c3.132,3.472,7.047,5.695,10.187,9.305c-6.848-1.477-12.812-4.894-18.612-7.909c-5.897-3.067-11.312-6.792-17.575-9.254
		c-1.335,5.883,3.075,11.753,3.551,18.483c0.18,2.563-0.063,6.14-1.287,8.903c-5.185-5.652-6.386-13.055-10.229-19.522
		c-3.238-5.448-9.521-11.261-14.827-15.366c-3.904-3.02-8.97-4.718-12.681-8.124c-2.757-2.531-6.238-7.411-8.796-11.192
		c-2.302-3.409-5.457-10.048-8.501-11.16c-1.272-0.464-3.145-0.461-4.149,0.121c-1.187,2.823,2.064,3.388,1.205,5.094
		c-4.076-0.926-4.02-3.908-5.452-6.734c-1.561-3.077-5.027-7.126-7.497-9.588c-4.815-4.801-12.186-7.858-17.418-13.321
		c-3.051-3.186-5.604-7.426-8.827-10.904c-4.746-5.125-7.45-8.899-9.447-15.934c-0.964-3.394-2.056-8.874-2.088-13.069
		c-0.012-1.691,0.722-3.457,0.579-5.188c-0.112-1.359-1.311-3.593-2.11-4.903c-4.308-7.056-11.599-14.263-18.754-19.889
		c-3.3-2.593-7.439-5.33-11.124-6.2c-3.958-0.936-8.239-1.104-12.481-1.975c-7.266-1.492-15.005-0.466-21.491-3.272
		c6.389-3.334,17.251-2.706,25.829-3.831c10.828-1.419,15.508-9.033,23.775-14.563c3.99-2.67,8.428-3.253,12.7-5.294
		c6.155-0.564,11.078-1.762,17.762-0.354c7.103,1.496,13.801,8.225,20.392,5.191c0.699-6.597,1.213-12.701,2.543-17.514
		c1.712-6.191,2.793-12.999,5.006-18.406c0.645-1.573,1.7-3.437,2.717-5.824c2.351-5.512,4.801-11.41,5.945-18.886
		c1.867,0.197,1.751,2.251,2.24,3.75c0.383,1.173,1.465,2.741,1.592,4.262c0.16,1.88-0.979,3.963-0.643,5.764
		c0.44,2.353,3.556,3.16,4.154,5.131c0.877,5.653-1.133,15.375-1.534,21.711c-0.178,2.805,1.748,4.219,1.887,6.922
		c0.304,5.952-1.865,11.979-2.64,18.378c-3.938,4.342-7.336,14.941,3.481,13.81c0.822-0.086,1.965-0.508,2.755-0.86
		c6.332-2.825,10.713-9.242,16.776-12.718c4.384-2.514,11.12-3.28,16.784-4.84c7.778-2.142,14.791-5.868,22.29-9.186
		c9.557-4.228,19.453-7.985,28.443-14.043c8.333-5.614,17.429-11.129,25.588-17.571c5.709-4.506,12.144-9.328,17.618-14.958
		c2.17-2.232,4.104-5.621,6.314-6.298C524.474,49.593,524.669,49.615,524.864,49.637z"/>
	<path fill-rule="evenodd" clip-rule="evenodd" fill="#FFFFFF" stroke="#000000" stroke-width="0.5" stroke-miterlimit="10" d="
		M72.93,0.272c0.71,1.398-0.507,2.588-0.801,3.531c-0.32,1.028,0.321,1.877-0.015,3.056c-1.003,0.754-1.012,1.7-1.267,2.595
		c-0.119,0.413-0.461,0.71-0.616,1.138c-0.386,1.066-0.067,2.001-0.73,2.896c-0.56,0.754-1.473,1.537-2.214,2.327
		c-1.439,1.533-2.919,3.105-4.277,4.753c-0.737,0.896-1.267,1.901-1.919,2.603c-0.751,0.808-2.44,1.317-2.849,2.177
		c-0.11,0.23,0.04,0.615-0.106,0.954c-0.522,1.208-2.879,1.175-3.188,2.3c-0.096,0.349,0.217,0.676,0.135,0.98
		c-0.345,1.291-2.233,1.077-2.491,2.619c-0.75,0.671-2.208,0.467-2.259,2.001c-1.801,1.09-2.654,3.352-5.055,3.701
		c-0.473,1.623,0.431,3.086,0.872,4.603c0.759,2.61,1.504,4.669,2.206,7.247c0.338,1.239,0.702,2.69,0.71,3.86
		c0.002,0.342-0.141,0.794-0.124,1.112c0.063,1.208,1.133,2.315,1.827,3.342c1.485,2.196,2.653,4.218,4.367,6.119
		c0.864,0.958,1.944,1.57,2.81,2.566c-1.889-0.407-3.533-1.35-5.133-2.181c-1.626-0.846-3.12-1.873-4.846-2.552
		c-0.368,1.622,0.848,3.241,0.979,5.097c0.05,0.707-0.017,1.693-0.354,2.455c-1.43-1.558-1.761-3.6-2.821-5.383
		c-0.893-1.502-2.626-3.105-4.089-4.237c-1.077-0.833-2.474-1.301-3.497-2.24c-0.76-0.698-1.72-2.044-2.426-3.086
		c-0.635-0.94-1.505-2.771-2.344-3.078c-0.351-0.128-0.867-0.127-1.144,0.033c-0.328,0.779,0.569,0.934,0.332,1.405
		c-1.124-0.255-1.108-1.078-1.503-1.857c-0.43-0.848-1.386-1.965-2.067-2.644c-1.328-1.324-3.36-2.167-4.803-3.674
		c-0.841-0.878-1.545-2.048-2.434-3.007c-1.309-1.413-2.054-2.454-2.605-4.394c-0.266-0.936-0.567-2.447-0.576-3.604
		c-0.003-0.467,0.199-0.954,0.16-1.431c-0.031-0.375-0.361-0.991-0.582-1.352c-1.188-1.945-3.198-3.934-5.171-5.484
		c-0.91-0.715-2.052-1.47-3.068-1.71c-1.092-0.258-2.272-0.305-3.441-0.544c-2.004-0.412-4.138-0.128-5.927-0.902
		c1.762-0.919,4.757-0.747,7.123-1.056c2.986-0.392,4.276-2.491,6.557-4.017c1.101-0.736,2.324-0.897,3.502-1.459
		c1.698-0.156,3.055-0.486,4.898-0.098c1.959,0.413,3.806,2.269,5.624,1.432c0.193-1.819,0.334-3.503,0.701-4.83
		c0.473-1.707,0.77-3.584,1.381-5.075c0.177-0.434,0.468-0.948,0.749-1.606c0.648-1.52,1.324-3.146,1.639-5.208
		c0.515,0.054,0.483,0.621,0.618,1.034c0.105,0.323,0.403,0.756,0.439,1.175c0.043,0.519-0.27,1.093-0.177,1.59
		c0.121,0.649,0.98,0.872,1.146,1.415c0.242,1.559-0.312,4.24-0.423,5.987c-0.049,0.774,0.482,1.164,0.52,1.909
		c0.084,1.642-0.515,3.304-0.728,5.068c-1.085,1.197-2.023,4.12,0.96,3.808c0.227-0.023,0.542-0.14,0.76-0.237
		c1.747-0.779,2.954-2.549,4.626-3.507c1.209-0.693,3.066-0.905,4.628-1.335c2.145-0.591,4.079-1.618,6.147-2.533
		c2.636-1.166,5.364-2.202,7.844-3.873c2.298-1.548,4.806-3.069,7.056-4.845c1.575-1.243,3.349-2.573,4.859-4.125
		c0.598-0.615,1.131-1.55,1.741-1.737C72.823,0.26,72.877,0.266,72.93,0.272z"/>
	<path fill-rule="evenodd" clip-rule="evenodd" fill="#FFFFFF" stroke="#000000" stroke-width="0.5" stroke-miterlimit="10" d="
		M93.665,6.746c0.71,1.398-0.507,2.588-0.801,3.531c-0.32,1.028,0.322,1.877-0.015,3.056c-1.003,0.753-1.012,1.7-1.267,2.594
		c-0.118,0.413-0.46,0.71-0.615,1.138c-0.385,1.066-0.067,2.001-0.73,2.896c-0.56,0.755-1.473,1.537-2.214,2.328
		c-1.439,1.533-2.919,3.104-4.277,4.753c-0.737,0.896-1.266,1.901-1.918,2.602c-0.751,0.809-2.441,1.317-2.849,2.176
		c-0.11,0.231,0.04,0.615-0.106,0.954c-0.522,1.208-2.879,1.175-3.188,2.299c-0.096,0.35,0.217,0.676,0.135,0.981
		c-0.345,1.291-2.233,1.077-2.491,2.619c-0.75,0.671-2.208,0.467-2.259,2.001c-1.801,1.09-2.655,3.352-5.056,3.701
		c-0.473,1.623,0.43,3.086,0.872,4.603c0.759,2.609,1.504,4.669,2.206,7.246c0.337,1.239,0.702,2.69,0.709,3.86
		c0.002,0.341-0.141,0.794-0.124,1.113c0.063,1.208,1.132,2.314,1.826,3.341c1.485,2.197,2.653,4.218,4.368,6.119
		c0.863,0.958,1.943,1.571,2.809,2.566c-1.888-0.407-3.533-1.35-5.132-2.181c-1.626-0.846-3.12-1.873-4.847-2.552
		c-0.368,1.622,0.848,3.241,0.979,5.097c0.05,0.707-0.018,1.693-0.354,2.455c-1.43-1.559-1.761-3.6-2.822-5.383
		c-0.893-1.502-2.625-3.105-4.088-4.238c-1.077-0.833-2.474-1.301-3.497-2.24c-0.76-0.698-1.72-2.043-2.426-3.086
		c-0.634-0.94-1.504-2.771-2.344-3.078c-0.351-0.128-0.867-0.127-1.145,0.034c-0.327,0.778,0.569,0.934,0.333,1.404
		c-1.125-0.255-1.108-1.078-1.503-1.857c-0.431-0.849-1.387-1.965-2.067-2.644c-1.328-1.324-3.36-2.167-4.803-3.674
		c-0.842-0.878-1.546-2.047-2.435-3.007c-1.309-1.413-2.054-2.454-2.605-4.394c-0.266-0.936-0.567-2.447-0.576-3.604
		c-0.003-0.467,0.199-0.953,0.16-1.431c-0.031-0.375-0.361-0.991-0.582-1.352c-1.188-1.946-3.198-3.933-5.171-5.485
		c-0.91-0.715-2.052-1.47-3.067-1.709c-1.092-0.258-2.272-0.305-3.442-0.544c-2.003-0.412-4.138-0.129-5.927-0.903
		c1.762-0.919,4.758-0.746,7.123-1.056c2.986-0.392,4.277-2.491,6.557-4.016c1.101-0.736,2.324-0.897,3.502-1.46
		c1.697-0.155,3.055-0.485,4.898-0.098c1.958,0.413,3.806,2.269,5.623,1.432c0.193-1.819,0.334-3.502,0.702-4.83
		c0.472-1.707,0.77-3.584,1.38-5.076c0.177-0.434,0.469-0.948,0.749-1.606c0.648-1.52,1.324-3.146,1.639-5.208
		c0.515,0.054,0.483,0.621,0.618,1.034c0.105,0.323,0.404,0.756,0.439,1.176c0.044,0.519-0.27,1.093-0.177,1.589
		c0.122,0.649,0.98,0.872,1.146,1.415c0.242,1.559-0.312,4.24-0.423,5.987c-0.049,0.774,0.482,1.164,0.521,1.909
		c0.083,1.641-0.515,3.303-0.728,5.068c-1.086,1.197-2.023,4.121,0.96,3.809c0.227-0.024,0.542-0.14,0.76-0.238
		c1.746-0.779,2.954-2.548,4.626-3.507c1.209-0.693,3.067-0.904,4.629-1.334c2.145-0.59,4.079-1.618,6.146-2.533
		c2.636-1.166,5.364-2.202,7.844-3.873c2.298-1.548,4.806-3.069,7.056-4.846c1.575-1.242,3.349-2.572,4.859-4.125
		c0.598-0.615,1.132-1.55,1.741-1.737C93.557,6.734,93.611,6.74,93.665,6.746z"/>
</g>
</svg>
